<mxfile host="app.diagrams.net" modified="2023-04-08T15:36:41.735Z" agent="Mozilla/5.0 (Windows NT 10.0; Win64; x64; rv:109.0) Gecko/20100101 Firefox/111.0" etag="lNz3ivCqudUjFDwjZttD" version="21.1.5" type="github">
  <diagram name="PÃ¡gina-1" id="a7iJs6mUVRCeJQD3-zEG">
    <mxGraphModel dx="2199" dy="794" grid="1" gridSize="10" guides="1" tooltips="1" connect="1" arrows="1" fold="1" page="1" pageScale="1" pageWidth="827" pageHeight="1169" math="0" shadow="0">
      <root>
        <mxCell id="0" />
        <mxCell id="1" parent="0" />
        <mxCell id="jH1DF7hmioqgqs-DXGkK-9" value="&lt;font style=&quot;font-size: 24px;&quot; color=&quot;#7ea6e0&quot;&gt;Parent&lt;/font&gt;" style="edgeStyle=orthogonalEdgeStyle;rounded=0;orthogonalLoop=1;jettySize=auto;html=1;endArrow=none;endFill=0;startSize=8;endSize=8;strokeColor=#A6A6A6;" edge="1" parent="1" source="jH1DF7hmioqgqs-DXGkK-12">
          <mxGeometry x="1" y="20" relative="1" as="geometry">
            <mxPoint x="414" y="170" as="targetPoint" />
            <mxPoint x="20" y="-20" as="offset" />
          </mxGeometry>
        </mxCell>
        <mxCell id="jH1DF7hmioqgqs-DXGkK-10" value="&lt;font style=&quot;font-size: 22px;&quot; color=&quot;#7ea6e0&quot;&gt;RIGHT&lt;/font&gt;" style="rounded=0;orthogonalLoop=1;jettySize=auto;html=1;exitX=1;exitY=0.5;exitDx=0;exitDy=0;edgeStyle=orthogonalEdgeStyle;elbow=vertical;curved=1;entryX=0;entryY=0.5;entryDx=0;entryDy=0;" edge="1" parent="1" source="jH1DF7hmioqgqs-DXGkK-12" target="jH1DF7hmioqgqs-DXGkK-20">
          <mxGeometry relative="1" as="geometry">
            <mxPoint x="694" y="520" as="targetPoint" />
            <mxPoint as="offset" />
          </mxGeometry>
        </mxCell>
        <mxCell id="jH1DF7hmioqgqs-DXGkK-11" value="&lt;font style=&quot;font-size: 22px;&quot; color=&quot;#7ea6e0&quot;&gt;LEFT&lt;/font&gt;" style="edgeStyle=orthogonalEdgeStyle;rounded=0;orthogonalLoop=1;jettySize=auto;html=1;exitX=0;exitY=0.5;exitDx=0;exitDy=0;curved=1;entryX=1;entryY=0.5;entryDx=0;entryDy=0;" edge="1" parent="1" source="jH1DF7hmioqgqs-DXGkK-12" target="jH1DF7hmioqgqs-DXGkK-42">
          <mxGeometry relative="1" as="geometry">
            <mxPoint x="190" y="520" as="targetPoint" />
          </mxGeometry>
        </mxCell>
        <mxCell id="jH1DF7hmioqgqs-DXGkK-12" value="Node" style="swimlane;whiteSpace=wrap;html=1;startSize=40;" vertex="1" parent="1">
          <mxGeometry x="294" y="280" width="240" height="280" as="geometry">
            <mxRectangle x="280" y="280" width="70" height="40" as="alternateBounds" />
          </mxGeometry>
        </mxCell>
        <mxCell id="jH1DF7hmioqgqs-DXGkK-13" value="" style="endArrow=none;dashed=1;html=1;rounded=0;" edge="1" parent="jH1DF7hmioqgqs-DXGkK-12">
          <mxGeometry width="50" height="50" relative="1" as="geometry">
            <mxPoint y="120" as="sourcePoint" />
            <mxPoint x="240" y="120" as="targetPoint" />
          </mxGeometry>
        </mxCell>
        <mxCell id="jH1DF7hmioqgqs-DXGkK-14" value="&lt;div style=&quot;font-size: 20px;&quot;&gt;KEY&lt;/div&gt;" style="text;html=1;align=center;verticalAlign=middle;resizable=0;points=[];autosize=1;strokeColor=none;fillColor=none;fontSize=20;fontColor=#7EA6E0;" vertex="1" parent="jH1DF7hmioqgqs-DXGkK-12">
          <mxGeometry x="90" y="60" width="60" height="40" as="geometry" />
        </mxCell>
        <mxCell id="jH1DF7hmioqgqs-DXGkK-15" value="COLOR" style="text;html=1;align=center;verticalAlign=middle;resizable=0;points=[];autosize=1;strokeColor=none;fillColor=none;fontSize=20;fontColor=#7EA6E0;" vertex="1" parent="jH1DF7hmioqgqs-DXGkK-12">
          <mxGeometry x="75" y="220" width="90" height="40" as="geometry" />
        </mxCell>
        <mxCell id="jH1DF7hmioqgqs-DXGkK-16" value="DATA" style="text;html=1;align=center;verticalAlign=middle;resizable=0;points=[];autosize=1;strokeColor=none;fillColor=none;fontSize=20;fontColor=#7EA6E0;" vertex="1" parent="jH1DF7hmioqgqs-DXGkK-12">
          <mxGeometry x="80" y="140" width="70" height="40" as="geometry" />
        </mxCell>
        <mxCell id="jH1DF7hmioqgqs-DXGkK-17" value="" style="endArrow=none;dashed=1;html=1;rounded=0;" edge="1" parent="jH1DF7hmioqgqs-DXGkK-12">
          <mxGeometry width="50" height="50" relative="1" as="geometry">
            <mxPoint y="200" as="sourcePoint" />
            <mxPoint x="240" y="200" as="targetPoint" />
          </mxGeometry>
        </mxCell>
        <mxCell id="jH1DF7hmioqgqs-DXGkK-18" value="&lt;font style=&quot;font-size: 8px;&quot; color=&quot;#7ea6e0&quot;&gt;RIGHT&lt;/font&gt;" style="rounded=0;orthogonalLoop=1;jettySize=auto;html=1;exitX=1;exitY=0.5;exitDx=0;exitDy=0;edgeStyle=orthogonalEdgeStyle;elbow=vertical;curved=1;" edge="1" parent="1" source="jH1DF7hmioqgqs-DXGkK-20">
          <mxGeometry relative="1" as="geometry">
            <mxPoint x="854" y="600" as="targetPoint" />
            <mxPoint as="offset" />
            <Array as="points">
              <mxPoint x="794" y="520" />
              <mxPoint x="794" y="600" />
            </Array>
          </mxGeometry>
        </mxCell>
        <mxCell id="jH1DF7hmioqgqs-DXGkK-19" value="&lt;font style=&quot;font-size: 8px;&quot; color=&quot;#7ea6e0&quot;&gt;LEFT&lt;/font&gt;" style="edgeStyle=orthogonalEdgeStyle;rounded=0;orthogonalLoop=1;jettySize=auto;html=1;exitX=0;exitY=0.5;exitDx=0;exitDy=0;curved=1;" edge="1" parent="1" source="jH1DF7hmioqgqs-DXGkK-20">
          <mxGeometry relative="1" as="geometry">
            <mxPoint x="614" y="600" as="targetPoint" />
            <Array as="points">
              <mxPoint x="674" y="520" />
              <mxPoint x="674" y="600" />
            </Array>
          </mxGeometry>
        </mxCell>
        <mxCell id="jH1DF7hmioqgqs-DXGkK-20" value="Node" style="swimlane;whiteSpace=wrap;html=1;startSize=40;" vertex="1" collapsed="1" parent="1">
          <mxGeometry x="694" y="500" width="80" height="40" as="geometry">
            <mxRectangle x="640" y="500" width="240" height="280" as="alternateBounds" />
          </mxGeometry>
        </mxCell>
        <mxCell id="jH1DF7hmioqgqs-DXGkK-21" value="" style="endArrow=none;dashed=1;html=1;rounded=0;" edge="1" parent="jH1DF7hmioqgqs-DXGkK-20">
          <mxGeometry width="50" height="50" relative="1" as="geometry">
            <mxPoint y="120" as="sourcePoint" />
            <mxPoint x="240" y="120" as="targetPoint" />
          </mxGeometry>
        </mxCell>
        <mxCell id="jH1DF7hmioqgqs-DXGkK-22" value="&lt;div style=&quot;font-size: 20px;&quot;&gt;KEY&lt;/div&gt;" style="text;html=1;align=center;verticalAlign=middle;resizable=0;points=[];autosize=1;strokeColor=none;fillColor=none;fontSize=20;fontColor=#7EA6E0;" vertex="1" parent="jH1DF7hmioqgqs-DXGkK-20">
          <mxGeometry x="90" y="60" width="60" height="40" as="geometry" />
        </mxCell>
        <mxCell id="jH1DF7hmioqgqs-DXGkK-23" value="COLOR" style="text;html=1;align=center;verticalAlign=middle;resizable=0;points=[];autosize=1;strokeColor=none;fillColor=none;fontSize=20;fontColor=#7EA6E0;" vertex="1" parent="jH1DF7hmioqgqs-DXGkK-20">
          <mxGeometry x="75" y="220" width="90" height="40" as="geometry" />
        </mxCell>
        <mxCell id="jH1DF7hmioqgqs-DXGkK-24" value="DATA" style="text;html=1;align=center;verticalAlign=middle;resizable=0;points=[];autosize=1;strokeColor=none;fillColor=none;fontSize=20;fontColor=#7EA6E0;" vertex="1" parent="jH1DF7hmioqgqs-DXGkK-20">
          <mxGeometry x="80" y="140" width="70" height="40" as="geometry" />
        </mxCell>
        <mxCell id="jH1DF7hmioqgqs-DXGkK-25" value="" style="endArrow=none;dashed=1;html=1;rounded=0;" edge="1" parent="jH1DF7hmioqgqs-DXGkK-20">
          <mxGeometry width="50" height="50" relative="1" as="geometry">
            <mxPoint y="200" as="sourcePoint" />
            <mxPoint x="240" y="200" as="targetPoint" />
          </mxGeometry>
        </mxCell>
        <mxCell id="jH1DF7hmioqgqs-DXGkK-40" value="&lt;font style=&quot;font-size: 8px;&quot; color=&quot;#7ea6e0&quot;&gt;RIGHT&lt;/font&gt;" style="rounded=0;orthogonalLoop=1;jettySize=auto;html=1;exitX=1;exitY=0.5;exitDx=0;exitDy=0;edgeStyle=orthogonalEdgeStyle;elbow=vertical;curved=1;" edge="1" parent="1" source="jH1DF7hmioqgqs-DXGkK-42">
          <mxGeometry relative="1" as="geometry">
            <mxPoint x="214" y="600" as="targetPoint" />
            <mxPoint as="offset" />
            <Array as="points">
              <mxPoint x="154" y="520" />
              <mxPoint x="154" y="600" />
            </Array>
          </mxGeometry>
        </mxCell>
        <mxCell id="jH1DF7hmioqgqs-DXGkK-41" value="&lt;font style=&quot;font-size: 8px;&quot; color=&quot;#7ea6e0&quot;&gt;LEFT&lt;/font&gt;" style="edgeStyle=orthogonalEdgeStyle;rounded=0;orthogonalLoop=1;jettySize=auto;html=1;exitX=0;exitY=0.5;exitDx=0;exitDy=0;curved=1;" edge="1" parent="1" source="jH1DF7hmioqgqs-DXGkK-42">
          <mxGeometry relative="1" as="geometry">
            <mxPoint x="-26" y="600" as="targetPoint" />
            <Array as="points">
              <mxPoint x="34" y="520" />
              <mxPoint x="34" y="600" />
            </Array>
          </mxGeometry>
        </mxCell>
        <mxCell id="jH1DF7hmioqgqs-DXGkK-42" value="Node" style="swimlane;whiteSpace=wrap;html=1;startSize=40;" vertex="1" collapsed="1" parent="1">
          <mxGeometry x="54" y="500" width="80" height="40" as="geometry">
            <mxRectangle x="54" y="500" width="240" height="280" as="alternateBounds" />
          </mxGeometry>
        </mxCell>
        <mxCell id="jH1DF7hmioqgqs-DXGkK-43" value="" style="endArrow=none;dashed=1;html=1;rounded=0;" edge="1" parent="jH1DF7hmioqgqs-DXGkK-42">
          <mxGeometry width="50" height="50" relative="1" as="geometry">
            <mxPoint y="120" as="sourcePoint" />
            <mxPoint x="240" y="120" as="targetPoint" />
          </mxGeometry>
        </mxCell>
        <mxCell id="jH1DF7hmioqgqs-DXGkK-44" value="&lt;div style=&quot;font-size: 20px;&quot;&gt;KEY&lt;/div&gt;" style="text;html=1;align=center;verticalAlign=middle;resizable=0;points=[];autosize=1;strokeColor=none;fillColor=none;fontSize=20;fontColor=#7EA6E0;" vertex="1" parent="jH1DF7hmioqgqs-DXGkK-42">
          <mxGeometry x="90" y="60" width="60" height="40" as="geometry" />
        </mxCell>
        <mxCell id="jH1DF7hmioqgqs-DXGkK-45" value="COLOR" style="text;html=1;align=center;verticalAlign=middle;resizable=0;points=[];autosize=1;strokeColor=none;fillColor=none;fontSize=20;fontColor=#7EA6E0;" vertex="1" parent="jH1DF7hmioqgqs-DXGkK-42">
          <mxGeometry x="75" y="220" width="90" height="40" as="geometry" />
        </mxCell>
        <mxCell id="jH1DF7hmioqgqs-DXGkK-46" value="DATA" style="text;html=1;align=center;verticalAlign=middle;resizable=0;points=[];autosize=1;strokeColor=none;fillColor=none;fontSize=20;fontColor=#7EA6E0;" vertex="1" parent="jH1DF7hmioqgqs-DXGkK-42">
          <mxGeometry x="80" y="140" width="70" height="40" as="geometry" />
        </mxCell>
        <mxCell id="jH1DF7hmioqgqs-DXGkK-47" value="" style="endArrow=none;dashed=1;html=1;rounded=0;" edge="1" parent="jH1DF7hmioqgqs-DXGkK-42">
          <mxGeometry width="50" height="50" relative="1" as="geometry">
            <mxPoint y="200" as="sourcePoint" />
            <mxPoint x="240" y="200" as="targetPoint" />
          </mxGeometry>
        </mxCell>
      </root>
    </mxGraphModel>
  </diagram>
</mxfile>
